<svg width="100" height="101" viewBox="0 0 100 101" fill="none" xmlns="http://www.w3.org/2000/svg">
<path d="M91.3199 48.8589C92.9754 50.9618 94.4966 52.841 95.7494 54.9439C102.148 65.5927 101.298 78.5233 93.4676 88.2325C88.3669 94.5412 81.8792 98.5681 73.8255 99.7761C66.1298 100.895 59.1499 98.7918 52.7964 94.4518C45.7718 89.6195 41.566 82.9081 40.2685 74.5413C38.8367 65.1005 41.3423 56.6441 47.9195 49.6195C51.8568 45.4137 54.7651 40.8052 55.9732 35.1229C58.5682 22.6397 51.5436 9.84326 39.5526 5.36898C32.3042 2.68442 25.0112 2.59493 18.0761 6.21909C9.75391 10.5591 4.83221 17.4495 3.71364 26.8455C2.7293 34.6755 5.01118 41.5659 10.0671 47.5614C10.2908 47.8298 10.5145 48.322 10.9172 48.1878C11.3199 48.0535 11.0962 47.5166 11.0962 47.2034C11.1409 46.2191 11.0962 45.2795 11.1409 44.2952C11.1857 43.2661 11.7673 42.7292 12.7517 42.6397C13.6465 42.5502 14.4072 43.1318 14.4966 44.1609C14.7204 47.1139 14.6309 50.0222 14.5414 52.9752C14.4966 54.0043 13.8255 54.586 12.7517 54.586C9.97763 54.586 7.15883 54.586 4.38479 54.586C3.26622 54.586 2.59508 53.8701 2.63982 52.841C2.68456 51.8567 3.31096 51.2303 4.38479 51.1855C5.45861 51.1408 6.53244 51.1855 7.60626 51.1855C7.87472 51.1855 8.18792 51.3198 8.32215 51.0513C8.50112 50.6934 8.14318 50.5144 7.9642 50.3354C4.56376 46.6665 2.19239 42.3712 1.02908 37.539C-1.43177 27.4271 0.581653 18.3444 7.29306 10.4249C13.3333 3.26607 21.2081 -0.223859 30.604 -0.000145137C44.3848 0.313054 56.3758 10.0222 59.1946 23.445C61.4318 33.9596 58.7472 43.3108 51.2304 51.0961C47.1588 55.3019 44.4743 60.1341 43.7136 65.9506C42.8635 72.3936 44.1163 78.3891 47.5168 83.9372C51.8568 91.0066 58.1208 95.2571 66.3535 96.2862C77.1812 97.6732 87.2483 93.1095 92.8412 83.1319C96.9575 75.7493 97.6734 68.0088 94.5861 59.9999C93.4676 57.0468 91.6778 54.4965 89.5749 52.1251C89.396 51.9462 89.217 51.633 88.9485 51.7225C88.5906 51.8567 88.7696 52.2146 88.7248 52.4831C88.7248 53.5122 88.7248 54.586 88.7248 55.6151C88.6801 56.6889 87.9195 57.4495 86.9799 57.4048C86.085 57.36 85.3691 56.6441 85.3244 55.6151C85.2796 52.841 85.2796 50.0222 85.3244 47.2482C85.3244 46.1296 85.9955 45.4137 87.1141 45.4137C89.8881 45.369 92.6174 45.369 95.3915 45.4137C96.4653 45.4137 97.2259 46.1744 97.2707 47.1139C97.3154 48.0983 96.5101 48.8589 95.3915 48.9037C94.094 48.9037 92.8412 48.8589 91.3199 48.8589Z" fill="#59AADD"/>
<path d="M87.6063 70.0224C87.5168 79.9553 80.4922 87.5615 69.7092 87.7853C60.1342 87.9642 51.9911 79.5973 52.1253 69.9329C52.2595 60 60 52.17 69.7092 52.2148C80.7159 52.2595 87.5615 60.179 87.6063 70.0224ZM69.8434 71.7674C72.17 71.7674 74.5414 71.7674 76.868 71.7674C78.1656 71.7674 78.8814 71.0515 78.8814 69.8882C78.8367 68.7696 78.1208 68.0985 76.868 68.0985C72.2595 68.0985 67.651 68.0985 62.9978 68.0985C61.7002 68.0985 60.9396 68.7696 60.9396 69.9329C60.9396 71.0515 61.7002 71.7674 62.9978 71.7674C65.2797 71.7674 67.5615 71.7674 69.8434 71.7674Z" fill="#56A9DC"/>
<path d="M12.2148 29.8434C12.3042 19.6868 20.0895 12.1253 30.4698 12.2148C40.0447 12.3043 47.83 20.4922 47.7405 30.3356C47.6957 39.7316 39.5078 47.83 30.2013 47.7853C19.9105 47.7853 12.1253 40 12.2148 29.8434ZM25.1007 28.1432C24.4295 28.1432 23.7584 28.1432 23.0872 28.1432C21.7002 28.1432 20.9396 28.8143 20.9396 30.0224C20.9396 31.1857 21.745 31.9016 23.132 31.9016C24.4743 31.9463 25.8165 31.9463 27.1588 31.9016C27.8747 31.8568 28.1432 32.0805 28.1432 32.8412C28.0984 34.2282 28.1432 35.6152 28.1432 36.9575C28.1432 37.4049 28.1432 37.8524 28.4564 38.2103C28.9485 38.792 29.5302 39.1499 30.2908 38.9709C31.1857 38.792 31.7226 38.255 31.7673 37.3602C31.8568 35.8389 31.8568 34.3177 31.8568 32.7964C31.8568 32.1253 32.0358 31.8568 32.7517 31.9016C34.1387 31.9463 35.5257 31.9463 36.868 31.9016C38.1655 31.8568 38.9262 31.141 38.8814 30.0224C38.8814 28.8591 38.1655 28.1879 36.8233 28.1879C35.5705 28.1879 34.2729 28.0984 33.0201 28.1879C31.991 28.2774 31.7673 27.8747 31.8121 26.9351C31.9016 25.5929 31.8568 24.2506 31.8121 22.9083C31.7673 21.7002 30.962 20.9844 29.8881 21.0291C28.8143 21.0738 28.1432 21.7897 28.1432 23.0425C28.1432 24.4743 28.1432 25.9508 28.1432 27.3826C28.1432 27.9642 27.9642 28.1879 27.3825 28.1879C26.5772 28.0984 25.8613 28.1432 25.1007 28.1432Z" fill="#56A9DC"/>
</svg>
