<svg width="100" height="87" viewBox="0 0 100 87" fill="none" xmlns="http://www.w3.org/2000/svg">
<path d="M65.2878 86.2109C65.0479 83.6929 65.2878 81.115 62.0503 79.9759C60.0719 79.2565 58.9928 80.3956 57.7338 81.115C56.4149 81.8944 55.5156 81.9543 54.4364 80.6953C53.4772 79.5562 52.3981 78.4771 51.259 77.5179C48.681 75.2996 46.6427 73.2613 49.6403 69.7241C50.8393 68.3452 49.0408 65.1078 46.8825 64.868C43.705 64.4483 42.9856 62.8296 43.3453 60.0119C43.4652 59.0526 43.4652 58.0335 43.3453 57.0143C42.9256 53.7169 43.3453 51.2589 47.482 50.7793C49.6403 50.5394 50.5995 47.302 49.1607 45.2637C47.482 42.9255 47.7218 41.1869 50 39.5682C50.8993 38.9088 51.6786 38.1294 52.3381 37.2301C54.3765 34.5323 56.4748 33.2733 59.6523 35.8512C61.1511 37.0502 64.3885 35.4915 64.6283 33.4531C64.988 29.856 67.0264 29.1366 70.1439 29.5562C71.0431 29.6761 71.9424 29.6761 72.8417 29.5562C75.9592 29.2565 78.4173 29.5562 78.717 33.633C78.8969 35.7912 82.3141 36.9903 84.1127 35.6114C86.6906 33.633 88.4892 34.1126 90.2878 36.5706C90.9472 37.4699 91.7266 38.2493 92.6259 38.9088C95.0839 40.8272 96.223 42.7457 93.9448 45.7433C92.6259 47.5418 93.9448 50.2397 96.0431 50.8992C97.3621 51.3188 98.741 51.6785 100.06 52.0383C100.06 56.055 100.06 60.0119 100.06 64.0287C98.681 64.3284 97.3021 64.5083 96.0431 64.9279C94.0647 65.5275 92.6259 68.4052 93.8249 69.904C96.5827 73.2613 94.964 75.2996 92.3261 77.338C91.5467 77.9375 90.8273 78.657 90.2278 79.4363C88.5491 81.7745 86.8105 82.0742 84.3525 80.3356C82.1343 78.7769 79.3765 80.0359 78.5971 82.6737C78.2973 83.8128 77.6978 84.892 77.9376 86.151C73.681 86.2109 69.4844 86.2109 65.2878 86.2109ZM71.8225 43.7049C63.6691 43.645 57.3741 49.88 57.3741 57.9735C57.3741 65.9471 63.8489 72.4819 71.7626 72.4219C79.4364 72.362 85.9712 65.8272 86.0911 58.0335C86.211 50.4195 79.5563 43.7049 71.8225 43.7049Z" fill="#399DDA"/>
<path d="M26.3789 -6.00368e-05C26.6187 0.959172 26.8585 1.91841 27.1583 2.87764C27.9376 5.15582 29.8561 6.0551 31.7746 4.73615C33.753 3.41721 34.952 3.89682 36.211 5.51553C36.8106 6.2949 37.53 7.01433 38.3094 7.61385C40.048 8.99274 40.5875 10.2517 39.1487 12.3501C37.7698 14.2685 38.789 16.187 40.9472 16.6666C43.3453 17.2062 44.0048 18.4052 43.705 20.6234C43.5851 21.7026 43.5851 22.8417 43.705 23.9208C43.8849 25.7793 43.4053 26.7985 41.3669 27.2182C38.729 27.8177 38.0096 29.7961 39.4484 32.0743C40.4676 33.693 40.1679 34.7122 38.8489 35.8513C37.7698 36.7505 36.7506 37.7098 35.9113 38.7889C34.7722 40.1678 33.693 40.3477 32.0743 39.3884C29.6763 38.0095 27.7578 38.7889 27.1583 41.4268C26.7386 43.3453 25.7794 43.8249 24.0408 43.645C22.9616 43.5251 21.8225 43.5251 20.7434 43.645C18.4652 43.8848 17.1463 43.4052 16.6067 40.7673C16.1271 38.6091 14.0288 37.9496 12.1103 39.2086C10.2518 40.4676 9.11271 40.0479 7.79377 38.4891C6.83453 37.3501 5.7554 36.3309 4.61631 35.3117C3.65707 34.4724 3.53717 33.693 4.19664 32.4939C6.05516 29.1966 5.39568 27.8776 1.67866 26.7985C1.13909 26.6186 0.539568 26.4388 0 26.199C0 23.2014 0 20.2038 0 17.2062C1.07914 16.9664 2.15827 16.9064 3.17746 16.5467C5.15588 15.7673 6.05516 14.0887 4.79616 12.3501C3.17746 10.1318 4.01679 8.87284 5.69544 7.43399C6.53477 6.71457 7.31415 5.99514 7.97362 5.09586C9.11271 3.65701 10.1918 3.2973 11.9305 4.43639C14.1487 5.87524 16.0671 4.91601 16.7866 2.33807C17.0264 1.49874 17.1463 0.59946 17.3861 -0.239868C20.3837 -6.00368e-05 23.3813 -6.00368e-05 26.3789 -6.00368e-05ZM21.9424 33.0335C28.0576 33.0335 32.9736 28.1174 32.9736 22.0623C32.9736 16.0671 27.9976 10.9712 22.0623 10.8513C16.0671 10.7913 10.7914 16.0671 10.8513 22.1222C10.8513 28.1174 15.8273 33.0335 21.9424 33.0335Z" fill="#399DDA"/>
</svg>
