<svg width="100" height="101" viewBox="0 0 100 101" fill="none" xmlns="http://www.w3.org/2000/svg">
<g clip-path="url(#clip0_9_158)">
<path d="M50 19.8C41.7999 19.8 34.2 22.9001 28.5 28.6C22.8 34.3 19.7 41.9 19.7 50.1C19.7 66.9 33 80.2001 49.9 80.4001C66.9 80.2001 80.1999 66.9 80.0999 50.1C80.1999 33.1 66.8999 19.8 50 19.8ZM50.0999 75.8001C42.9999 75.8001 36.5 73 31.6 68.1C26.8 63.2 24.2 56.8 24.2 50C24.3 35.6 35.6999 24.3 50.0999 24.3H50.2C57 24.3 63.3999 27 68.1999 31.9C72.9999 36.8 75.6999 43.3 75.5999 50.1C75.6999 64.3 64.2 75.8001 50.0999 75.8001Z" fill="#56A9DC"/>
<path d="M74.6 27.6C75.5 27.6 76.1 27.1 76.6 26.6C79.6 23.6 82.6 20.5 85.7 17.5C86.1 17.1 86.4 16.6 86.6 16.2C86.9 15.3 86.7 14.5 85.9 13.8C85.2 13.1 84.3 13 83.4 13.5C83.1 13.7 82.8 13.9 82.5 14.2C79.4 17.3 76.4 20.3 73.3 23.4C73 23.7 72.8 24 72.6 24.3C72.3 25 72.3 25.8 72.7 26.4C73.2 27.2 73.9 27.6 74.6 27.6Z" fill="#56A9DC"/>
<path d="M25.4 72.6C24.7 72.6 24 72.9 23.4 73.5C20.3 76.6 17.2 79.7 14.2 82.8C14 83 13.7 83.4 13.5 83.7C13.3 84.1 13.2 84.6 13.3 85.1C13.3 85.2 13.4 85.4 13.4 85.5V85.6C13.4 85.7 13.5 85.8 13.5 85.8C13.9 86.5 14.6 86.9 15.4 86.9H15.5C16.1 86.8 16.6 86.6 17 86.2C17.2 86.1 17.3 85.9 17.5 85.8C18.8 84.5 20.2 83.1 21.5 81.8L23.2 80.1C23.5 79.8 23.9 79.4 24.2 79.1C25 78.3 25.8 77.5 26.7 76.6C28.1 75.1 27.5 73.9 26.9 73.3C26.5 72.9 26 72.6 25.4 72.6Z" fill="#56A9DC"/>
<path d="M20.0001 23.2L23.5001 26.7C23.9001 27.1 24.5001 27.6 25.4001 27.6C25.4001 27.6 25.4001 27.6 25.5001 27.6C26.4001 27.5 27.1001 27 27.5001 26.2C27.9001 25.3 27.7001 24.5 26.9001 23.7C25.7001 22.5 24.5001 21.3 23.3001 20.1L22.0001 18.8C21.6001 18.4 21.1001 17.9 20.7001 17.5C19.6001 16.4 18.5001 15.3 17.4001 14.3C16.6001 13.5 15.9001 13.4 15.5001 13.5C15.1001 13.5 14.5001 13.7 13.9001 14.4C13.1001 15.5 13.3001 16.5 14.4001 17.6C16.1001 19.3 18.0001 21.3 20.0001 23.2Z" fill="#56A9DC"/>
<path d="M80.3 77.2C79.1 76 77.8 74.7 76.6 73.5C76.3 73.2 76 72.9 75.5 72.7C75.3 72.6 75.1 72.6 74.8 72.6C73.9 72.6 73.2 73 72.8 73.9C72.6 74.2 72.5 74.6 72.5 74.9C72.5 75.5 72.7 76 73.2 76.5C76.2 79.5 79.4 82.7 83 86.3C83.5 86.8 84 87 84.5 87C84.8 87 85 86.9 85.2 86.9C86 86.6 86.6 86 86.7 85.3C86.9 84.5 86.6 83.7 85.8 82.9C84 80.9 82.1 79.1 80.3 77.2Z" fill="#56A9DC"/>
<path d="M49.9 17.7C50 17.7 50 17.7 49.9 17.7C51.3 17.7 52.0999 16.7 52.2999 15.2C52.2999 15.1 52.2999 15 52.2999 14.8V14.7V12.2C52.2999 9.1 52.2999 6 52.2999 2.9C52.2999 2.5 52.3 2.1 52.2 1.7C52 0.7 51.1 0 50 0C48.9 0 47.9999 0.7 47.7999 1.8C47.6999 2.2 47.7 2.6 47.7 3C47.7 4.4 47.7 5.8 47.7 7.2V12.7C47.7 12.9 47.7 13.2 47.7 13.4C47.7 14 47.7 14.6 47.7 15.1C47.8 16.7 48.7 17.6 49.9 17.7Z" fill="#56A9DC"/>
<path d="M52.2999 90.2C52.2999 89.2 52.2999 88.3 52.2999 87.3C52.2999 87.1 52.2999 86.9 52.2999 86.7C52.2999 86.1 52.3 85.4 52.2 84.7C52.1 83.4 51.2 82.6 49.9 82.6C48.7 82.6 47.9 83.4 47.7 84.8C47.7 85 47.7 85.2 47.7 85.3V88.7C47.7 91.6 47.7 94.5 47.7 97.4C47.7 98 47.8 98.5 48 99C48.3 99.8 49.1 100.3 50 100.4C50.9 100.4 51.7 99.9 52 99.1C52.3 98.5 52.2999 97.9 52.2999 97.4C52.2999 96 52.2999 94.6 52.2999 93.2V90.2Z" fill="#56A9DC"/>
<path d="M17.7 50.1C17.7 48.8 16.7 47.9 15.1 47.9C13.6 47.9 12.2 47.9 10.7 47.9H8.9H7.1C5.6 47.9 4.2 47.9 2.7 47.9C1.9 47.9 1.2 48.2 0.7 48.6C0.2 49 0 49.5 0 50.1C0 51.4 1.1 52.3 2.6 52.3C4.7 52.3 6.7 52.3 8.8 52.3C10.9 52.3 13 52.3 15.1 52.3C16.6 52.3 17.7 51.4 17.7 50.1Z" fill="#56A9DC"/>
<path d="M97.4 47.8C93.3 47.8 89.1 47.8 85 47.8C83.4 47.8 82.4 48.6 82.4 50C82.4 50.6 82.6 51.1 83 51.6C83.5 52.1 84.2 52.4001 85.1 52.4001C85.9 52.4001 86.8 52.4001 87.6 52.4001C88.2 52.4001 88.8 52.4001 89.4 52.4001H91.2H93C94.5 52.4001 95.9 52.4001 97.4 52.4001C98.3 52.4001 99 52.1 99.5 51.6C99.9 51.2 100.1 50.6 100.1 50.1C100 48.7 98.9 47.8 97.4 47.8Z" fill="#56A9DC"/>
</g>
<defs>
<clipPath id="clip0_9_158">
<rect width="100" height="100.2" fill="white"/>
</clipPath>
</defs>
</svg>
