<svg width="60" height="60" viewBox="0 0 60 60" fill="none" xmlns="http://www.w3.org/2000/svg">
<g clip-path="url(#clip0_27_979)">
<path d="M30 60C46.5685 60 60 46.5685 60 30C60 13.4315 46.5685 0 30 0C13.4315 0 0 13.4315 0 30C0 46.5685 13.4315 60 30 60Z" fill="#9DCD57"/>
<path d="M36.7501 26.7C36.6901 28.29 36.0601 30.27 34.7701 32.04C33.6001 33.63 33.7201 33.96 35.6401 34.65C37.0501 35.16 38.4601 35.61 39.8401 36.12C40.7101 36.45 41.5201 36.84 42.1801 37.53C42.4201 37.77 42.7201 38.01 42.3901 38.4C42.1201 38.7 41.8201 39.03 41.3701 38.64C39.4801 36.99 37.0201 36.66 34.8001 35.79C32.4601 34.86 31.9501 33.48 33.4801 31.47C35.2501 29.1 35.9401 26.58 35.0101 23.73C34.2901 21.54 32.3701 20.25 30.0301 20.25C27.6901 20.25 25.7701 21.6 25.0801 23.79C24.2101 26.58 24.8401 29.1 26.5501 31.41C28.1401 33.54 27.7201 34.86 25.2601 35.82C23.0401 36.69 20.5801 37.05 18.6901 38.67C18.3301 38.97 18.0601 38.76 17.7901 38.52C17.3101 38.13 17.6401 37.83 17.9101 37.53C18.4801 36.93 19.1701 36.57 19.9501 36.3C21.4501 35.76 22.9501 35.22 24.4501 34.68C26.3401 33.99 26.4301 33.69 25.2901 32.07C23.9401 30.21 23.1901 28.14 23.2801 25.8C23.4601 21.66 26.2501 18.81 30.0901 18.9C34.0501 18.93 36.7801 21.93 36.7501 26.7Z" fill="#EBEBED" stroke="#EBEBED" stroke-miterlimit="10"/>
<path d="M12.7499 30.12C12.7199 27 13.4999 24.09 15.0599 21.42C15.3599 20.88 15.5399 19.65 16.5599 20.28C17.3999 20.82 16.5599 21.51 16.2599 22.05C12.0299 29.58 14.3099 38.94 21.5999 43.47C26.5499 46.56 31.7699 46.59 37.0499 44.28C37.6799 44.01 38.1299 43.71 38.2499 42.84C38.4599 41.31 39.5999 40.56 40.9199 40.92C42.1499 41.25 42.7199 42.15 42.5699 43.38C42.3899 44.67 41.1899 45.45 39.6899 45.03C38.7599 44.76 38.1599 45.24 37.4699 45.57C26.9699 50.43 15.3899 44.58 13.0799 33.24C12.8699 32.19 12.8699 31.17 12.7499 30.12ZM40.4099 43.8C40.7999 43.68 41.1899 43.5 41.1899 43.02C41.1899 42.48 40.8599 42.21 40.3199 42.24C39.8699 42.27 39.5699 42.54 39.5699 42.96C39.5399 43.53 39.9599 43.71 40.4099 43.8Z" fill="#EBEBED" stroke="#EBEBED" stroke-miterlimit="10"/>
<path d="M47.25 29.94C47.31 33.12 46.5 36.06 44.85 38.79C44.58 39.24 44.43 40.26 43.56 39.81C42.57 39.3 43.38 38.64 43.68 38.1C49.05 28.65 44.19 17.22 33.66 14.55C29.82 13.59 26.16 14.19 22.65 15.9C21.96 16.23 21.66 16.62 21.6 17.43C21.51 18.84 20.52 19.41 19.2 19.23C17.79 19.05 17.22 18.09 17.43 16.77C17.64 15.39 18.6 14.76 19.89 15.03C20.67 15.18 21.27 15.12 21.96 14.73C33.57 8.76003 47.01 16.83 47.25 29.94ZM20.31 17.22C20.28 16.77 20.13 16.44 19.62 16.41C19.17 16.38 18.84 16.53 18.78 17.04C18.72 17.58 18.96 17.94 19.53 17.97C19.98 17.97 20.22 17.64 20.31 17.22Z" fill="#EBEBED" stroke="#EBEBED" stroke-miterlimit="10"/>
</g>
<defs>
<clipPath id="clip0_27_979">
<rect width="60" height="60" fill="white"/>
</clipPath>
</defs>
</svg>
