<svg width="66" height="65" viewBox="0 0 66 65" fill="none" xmlns="http://www.w3.org/2000/svg">
<g clip-path="url(#clip0_12_81)">
<path d="M9.69612 9.22178C-2.97266 21.8906 -2.82125 42.6329 10.0338 55.488C22.8889 68.3431 43.6313 68.4945 56.3 55.8257C69.0023 43.1235 68.8174 22.4146 55.9623 9.55948C43.1073 -3.2956 22.3983 -3.48043 9.69612 9.22178ZM46.7134 34.0717L34.4699 45.0264C33.8008 45.6276 32.7228 45.5523 32.1118 44.8745C31.5008 44.1966 31.5602 43.1196 32.2293 42.5184L41.3283 34.3691L20.4488 33.88C19.5394 33.8397 18.7931 33.0935 18.8202 32.1846C18.8472 31.2756 19.5826 30.5402 20.492 30.5806L41.3381 31.1031L32.4195 22.4519C31.7751 21.8075 31.7338 20.7634 32.335 20.0944C32.9701 19.4592 34.0137 19.4332 34.6916 20.0442L46.7292 31.6138C47.4414 32.3261 47.4159 33.4371 46.7134 34.0717Z" fill="white"/>
</g>
<defs>
<clipPath id="clip0_12_81">
<rect width="65" height="65.9559" fill="white" transform="translate(0.0441284 65) rotate(-90)"/>
</clipPath>
</defs>
</svg>
