<svg width="60" height="60" viewBox="0 0 60 60" fill="none" xmlns="http://www.w3.org/2000/svg">
<g clip-path="url(#clip0_27_883)">
<path d="M30 60C46.5685 60 60 46.5685 60 30C60 13.4315 46.5685 0 30 0C13.4315 0 0 13.4315 0 30C0 46.5685 13.4315 60 30 60Z" fill="#9DCD57"/>
<path d="M27.7803 20.52C28.5903 21.15 29.4003 21.78 30.1803 22.44C30.5703 22.77 30.7503 23.25 30.3603 23.7C29.9103 24.21 29.3703 24.21 28.9203 23.76C27.4803 22.38 26.1003 20.97 24.6903 19.53C24.1803 19.02 24.4503 18.51 24.8703 18.09C26.1603 16.77 27.4803 15.45 28.8003 14.16C29.1903 13.77 29.6703 13.47 30.2403 13.98C30.9003 14.58 30.5703 15.12 30.0903 15.57C29.4303 16.23 28.6803 16.8 27.9903 17.43C28.0803 17.64 28.1703 17.85 28.2603 18.06C31.9203 18.06 35.6103 17.91 39.2703 18.09C43.4403 18.3 46.1703 21.9 45.4503 25.89C44.8803 29.1 42.0303 31.29 38.1903 31.32C33.5103 31.38 28.8303 31.32 24.1803 31.32C23.4303 31.32 22.6803 31.32 21.9003 31.35C19.2603 31.5 17.2503 33.36 17.0703 35.79C16.8903 38.16 18.7803 40.59 21.3903 40.68C26.6703 40.89 31.9803 40.77 37.2603 40.8C38.0703 40.8 38.2203 40.23 38.5203 39.72C39.7503 37.62 41.5803 36.81 43.6803 37.44C45.6903 38.01 47.1003 39.87 47.0703 41.82C47.0403 43.77 45.5103 45.66 43.5603 46.17C41.6103 46.68 39.5103 45.87 38.5503 43.86C37.9803 42.69 37.2303 42.69 36.2403 42.69C31.3503 42.69 26.4903 42.78 21.6003 42.63C17.8203 42.51 15.2103 39.75 15.1503 36.21C15.0903 32.25 18.0903 29.4 22.5303 29.37C27.6903 29.31 32.8503 29.37 37.9803 29.34C41.3403 29.34 43.5903 27.45 43.5903 24.66C43.6203 21.87 41.3403 19.92 38.0103 19.89C34.7403 19.86 31.4403 19.89 28.1703 19.89C28.0803 20.07 27.9303 20.28 27.7803 20.52ZM45.0903 41.7C44.8803 40.17 44.0703 39.18 42.4503 39.21C40.8003 39.24 39.9603 40.29 39.9903 41.88C40.0203 43.38 40.9803 44.28 42.4803 44.28C44.0703 44.28 44.9403 43.32 45.0903 41.7Z" fill="#EEEFF1"/>
<path d="M17.5502 14.4C20.0102 14.43 21.9302 16.38 21.9602 18.87C21.9602 21.42 19.8902 23.52 17.4302 23.46C15.0602 23.4 12.9602 21.27 12.9302 18.93C12.9302 16.44 15.0302 14.37 17.5502 14.4ZM20.0702 18.84C20.0402 17.4 18.8402 16.26 17.3702 16.38C15.8702 16.5 14.9402 17.34 14.9402 18.87C14.9402 20.49 15.8702 21.39 17.4902 21.45C18.9302 21.51 20.1002 20.28 20.0702 18.84Z" fill="#EEEFF1"/>
</g>
<defs>
<clipPath id="clip0_27_883">
<rect width="60" height="60" fill="white"/>
</clipPath>
</defs>
</svg>
