<svg width="60" height="60" viewBox="0 0 60 60" fill="none" xmlns="http://www.w3.org/2000/svg">
<g clip-path="url(#clip0_27_923)">
<path d="M30 60C46.5685 60 60 46.5685 60 30C60 13.4315 46.5685 0 30 0C13.4315 0 0 13.4315 0 30C0 46.5685 13.4315 60 30 60Z" fill="#9DCD57"/>
<path d="M48.8099 27.18C48.7499 26.97 48.6299 26.88 48.4499 26.76C47.9399 26.43 46.0499 26.01 45.7799 25.71C45.6899 25.62 45.0599 23.67 44.9099 23.31C44.7599 22.95 44.2499 22.17 44.2199 21.9C44.0999 21.18 45.7799 19.38 45.2099 18.48L41.3399 14.73C40.4099 14.4 38.8199 15.87 38.0699 15.78C37.8899 15.75 37.0499 15.21 36.7499 15.09C36.3599 14.94 34.3499 14.28 34.2599 14.19C34.0199 13.95 33.5099 12.06 33.2699 11.58C33.0599 11.19 32.8499 11.13 32.4299 11.1C31.3199 11.01 28.4999 10.95 27.4499 11.1C26.3699 11.25 26.3399 13.62 25.7399 14.16C25.5299 14.34 23.9999 14.79 23.5799 14.97C23.1299 15.15 22.4999 15.6 22.1099 15.72C21.2699 15.96 19.5899 14.28 18.5999 14.76L14.7599 18.66C14.6699 18.9 14.6999 19.11 14.7599 19.32C14.8799 19.83 15.8699 21.48 15.8699 21.81C15.8699 22.29 14.2199 24.78 14.3099 25.62C13.6799 26.22 11.3999 26.43 11.1899 27.36L11.2199 32.7C11.4899 33.6 13.8299 33.72 14.2799 34.29C14.4599 34.53 14.9399 36.15 15.1499 36.63C15.3599 37.11 15.6299 37.62 15.9299 38.07C15.7499 38.82 14.6399 40.47 14.7599 41.13C14.7899 41.28 14.9399 41.52 15.0299 41.64C15.4199 42.24 17.6099 44.34 18.2399 44.85C18.7199 45.24 18.8399 45.39 19.4999 45.21C20.1299 45.06 21.4499 44.16 21.9899 44.19C22.2899 44.22 23.1299 44.76 23.4899 44.91C24.2099 45.21 24.9299 45.51 25.6799 45.69C26.3399 46.29 26.4899 48.6 27.4199 48.81C29.0399 48.75 30.8999 48.99 32.4899 48.84C33.1799 48.78 33.1799 48.6 33.4499 48.03C33.6599 47.61 34.1399 45.96 34.3499 45.78C34.4699 45.66 36.0599 45.18 36.4199 45.03C36.8099 44.88 37.8299 44.28 38.0399 44.22C38.9399 44.04 40.6499 45.78 41.6099 45.15L45.3299 41.34C45.6899 40.47 44.2199 38.76 44.2799 38.07C44.2799 37.95 45.0899 36.45 45.2099 36.12C45.3899 35.7 45.6899 34.53 45.8399 34.32C46.1999 33.81 48.7199 33.54 48.8999 32.73L48.8099 27.18ZM44.2799 33.06C44.0099 33.48 43.6499 35.04 43.3799 35.7C43.1399 36.24 42.2699 37.59 42.2399 38.01C42.1799 38.64 43.4099 40.44 43.3199 40.83L40.8899 43.29C40.5599 43.47 38.6099 42.12 37.8899 42.24C37.5599 42.3 36.4499 43.02 35.9999 43.23C35.3099 43.53 33.4499 43.98 33.0599 44.25C32.5799 44.61 32.2199 46.44 31.8599 47.01L28.2899 47.07C27.8099 46.35 27.6299 44.58 26.8499 44.16C26.1899 43.8 24.9599 43.56 24.1499 43.23C23.6699 43.02 22.4399 42.24 22.0799 42.21C21.3899 42.15 19.9799 43.2 19.2299 43.29C19.0499 43.26 16.8299 41.04 16.7699 40.86C16.5899 40.41 17.9999 38.58 17.7899 37.74C17.6999 37.38 16.9199 36.15 16.6799 35.64C16.4099 35.04 15.9899 33.33 15.7199 32.97C15.3299 32.49 13.0799 31.95 12.9599 31.8L12.8999 28.26C12.9599 28.02 15.5399 27.42 15.7799 26.91C16.1099 25.89 16.4099 24.87 16.8599 23.88C17.0699 23.37 17.7299 22.5 17.7899 22.05C17.8799 21.36 16.8299 19.95 16.7099 19.2C16.7399 19.02 18.8699 16.95 19.0799 16.8C19.1999 16.71 19.2299 16.68 19.3799 16.71C20.0699 16.8 21.4499 17.91 22.1399 17.79C22.4999 17.73 23.5499 17.01 24.0299 16.8C24.6899 16.5 26.6699 16.02 27.0299 15.72C27.5099 15.33 28.0499 13.08 28.1999 12.96C29.2199 13.08 30.7199 12.75 31.6799 12.93C31.8599 12.96 31.8599 12.99 31.9499 13.11C32.3099 13.71 32.4899 14.94 32.8799 15.51C33.1499 15.9 35.1299 16.38 35.7299 16.62C36.2399 16.83 37.7699 17.76 38.1299 17.76C38.7599 17.79 40.1399 16.74 40.8599 16.68C41.0099 16.71 43.1699 18.87 43.2599 19.05C43.3199 19.17 43.3799 19.2 43.3499 19.35C43.2899 19.83 42.5399 21 42.3599 21.6C42.2999 21.81 42.2399 21.87 42.2999 22.11C42.3899 22.53 43.1399 23.7 43.3799 24.24C43.6199 24.84 44.1299 26.79 44.4299 27.09C44.7899 27.48 46.9199 27.96 47.0999 28.2L47.1299 31.83C46.4999 32.19 44.6099 32.55 44.2799 33.06Z" fill="white"/>
<path d="M28.5901 17.28C18.9301 18.15 13.9801 29.61 19.5901 37.5C25.7101 46.05 39.2401 43.89 42.2401 33.84C44.9701 24.81 37.8601 16.44 28.5901 17.28ZM39.6301 35.4C35.5201 42.78 24.7501 42.9 20.5201 35.58C16.4701 28.59 21.0001 19.77 29.0401 19.05C37.8001 18.27 43.9201 27.66 39.6301 35.4Z" fill="white"/>
<path d="M37.0199 27.45C36.9899 28.05 36.7799 28.56 36.3299 29.01C33.7799 31.59 31.2299 34.17 28.6799 36.78C27.8699 37.62 27.0599 37.65 26.2199 36.78C24.9299 35.46 23.5799 34.17 22.2899 32.82C21.3299 31.83 21.2999 30.48 22.1699 29.67C23.0699 28.77 24.1799 28.86 25.3199 29.79C26.0999 30.42 26.5799 31.83 27.5999 31.62C28.4099 31.44 29.0399 30.33 29.7299 29.61C30.9599 28.38 32.1299 27.15 33.3899 25.95C34.1099 25.26 34.9799 25.08 35.8799 25.53C36.6599 25.92 37.0199 26.58 37.0199 27.45ZM35.7899 27.27C35.7599 27.21 35.7299 27.03 35.6099 26.91C35.0099 26.22 34.4699 26.58 33.9899 27.09C32.1899 28.89 30.3899 30.69 28.6199 32.52C27.8399 33.33 27.1199 33.42 26.3099 32.55C25.7399 31.95 25.1699 31.38 24.5699 30.81C24.1199 30.36 23.5799 30.06 23.0099 30.57C22.4099 31.11 22.7699 31.62 23.2199 32.1C24.4199 33.3 25.6199 34.44 26.7599 35.67C27.2699 36.21 27.5999 36.12 28.0799 35.64C30.4199 33.24 32.7899 30.84 35.1599 28.44C35.4899 28.11 35.8199 27.87 35.7899 27.27Z" fill="#EDEEEF"/>
</g>
<defs>
<clipPath id="clip0_27_923">
<rect width="60" height="60" fill="white"/>
</clipPath>
</defs>
</svg>
