<svg width="60" height="60" viewBox="0 0 60 60" fill="none" xmlns="http://www.w3.org/2000/svg">
<g clip-path="url(#clip0_27_916)">
<path d="M30 60C46.5685 60 60 46.5685 60 30C60 13.4315 46.5685 0 30 0C13.4315 0 0 13.4315 0 30C0 46.5685 13.4315 60 30 60Z" fill="#9DCD57"/>
<path d="M26.64 11.5801C18 14.0401 14.04 24.2401 18.93 31.8601C20.76 34.6801 23.76 35.8501 24.18 39.5701C24.39 41.4301 23.64 44.8201 24.84 46.2301C25.05 46.5001 25.7999 46.9501 25.86 47.0101C25.9799 47.1901 26.04 48.1501 26.19 48.5401C27.6 52.3801 33.03 52.4101 34.44 48.5701C34.56 48.2101 34.74 46.9801 34.77 46.9201C34.83 46.8301 35.1 46.8001 35.2199 46.6801C35.67 46.3201 36.2399 45.6301 36.3599 45.0301C36.5999 43.6501 36.27 41.6401 36.39 40.1701C36.66 35.9401 39.27 35.2801 41.34 32.3401C48.69 22.0501 38.76 8.13006 26.64 11.5801ZM27.75 47.1901H32.8799C32.7299 50.4901 27.87 50.4901 27.75 47.1901ZM34.59 44.7901C34.59 45.0001 33.99 45.4501 33.75 45.3901C31.5599 45.2401 29.13 45.5701 27 45.3901C26.79 45.3601 26.4899 45.3301 26.3099 45.1801C26.2199 45.1201 25.9799 44.7601 25.9799 44.7001V42.3001H34.62V44.7901H34.59ZM39.69 31.6201C38.7 32.9701 37.2899 33.8401 36.33 35.1901C35.2199 36.7501 34.62 38.5801 34.62 40.5001H26.07C26.01 38.9701 25.6799 37.5001 24.9299 36.1201C23.82 34.0801 21.99 33.0901 20.7 31.2301C16.11 24.6301 19.5 15.2701 27.27 13.2301C37.92 10.4701 46.32 22.7101 39.69 31.6201Z" fill="white"/>
<path d="M37.8301 23.61C37.4701 20.82 35.5201 18.39 32.8801 17.46C33.2401 16.68 34.7701 15.12 33.4801 14.46C32.9401 14.19 32.5801 14.52 32.2801 14.94C31.8301 15.57 31.4701 16.38 31.0801 17.04C25.3201 16.53 20.9401 22.44 23.4601 27.84C24.1501 29.34 25.5901 30.75 27.0901 31.47C27.6601 31.74 28.2601 31.86 28.8301 32.1C28.5901 32.82 27.6601 33.93 28.0801 34.65C28.2901 35.04 28.7701 35.16 29.1901 35.04C29.8501 34.83 30.3901 32.76 30.8101 32.19C35.1301 31.89 38.4001 27.96 37.8301 23.61ZM29.5801 30.33C27.8101 30.06 26.2201 29.04 25.3201 27.51C23.1601 23.79 25.6501 19.08 29.9401 18.87L27.1501 23.7C26.7901 24.33 27.2101 25.02 27.8701 25.11C29.1301 25.32 30.6601 24.93 31.9501 25.05L29.5801 30.33ZM32.7601 29.82C32.6701 29.85 31.6201 30.3 31.6801 30.12L34.3501 24.33C34.4401 23.97 33.9301 23.25 33.6001 23.25H29.5501L31.9801 19.08C37.0201 20.49 37.5601 27.63 32.7601 29.82Z" fill="white"/>
</g>
<defs>
<clipPath id="clip0_27_916">
<rect width="60" height="60" fill="white"/>
</clipPath>
</defs>
</svg>
