<svg width="60" height="60" viewBox="0 0 60 60" fill="none" xmlns="http://www.w3.org/2000/svg">
<g clip-path="url(#clip0_27_961)">
<path d="M30 60C46.5685 60 60 46.5685 60 30C60 13.4315 46.5685 0 30 0C13.4315 0 0 13.4315 0 30C0 46.5685 13.4315 60 30 60Z" fill="#9DCD57"/>
<path d="M29.19 40.53C28.44 40.35 27.66 40.26 26.94 39.99C22.89 38.4 18.9 36.81 14.88 35.22C14.61 35.1 14.31 34.95 14.1 34.74C13.32 34.05 13.35 33 14.19 32.22C14.91 31.56 15.69 30.93 16.41 30.3C20.46 26.64 24 22.56 26.34 17.55C27.06 16.05 27.54 14.46 28.05 12.87C28.62 11.07 30.06 9.99003 31.74 10.29C32.04 10.35 32.34 10.44 32.61 10.56C36.45 12.06 40.26 13.59 44.07 15.09C45.84 15.78 46.59 17.49 45.9 19.26C43.68 24.93 40.86 30.27 36.9 34.95C35.73 36.36 34.38 37.62 33.09 38.91C32.04 39.99 30.69 40.41 29.19 40.53ZM15.12 33.51C15.3 33.63 15.39 33.69 15.48 33.72C19.5 35.31 23.52 36.96 27.57 38.49C29.07 39.06 30.66 38.91 31.92 37.8C33.12 36.75 34.29 35.58 35.31 34.38C39.24 29.76 42.09 24.51 44.34 18.9C44.79 17.73 44.46 16.98 43.32 16.53C40.05 15.24 36.78 13.95 33.51 12.66C32.85 12.39 32.19 12.15 31.53 11.91C30.93 11.73 30.39 11.91 30.06 12.42C29.85 12.72 29.7 13.08 29.58 13.44C28.8 16.38 27.54 19.14 25.92 21.69C23.28 25.86 19.98 29.4 16.26 32.58C15.9 32.88 15.54 33.18 15.12 33.51Z" fill="white"/>
<path d="M16.1699 45.1201C17.5199 45.6601 18.7799 46.1701 20.0099 46.6501C22.7399 47.7301 25.4999 48.8701 28.2599 49.9201C30.1799 50.6401 31.9199 50.4301 33.4799 48.9901C37.4699 45.2701 40.4699 40.8301 42.9299 36.0001C43.8299 34.2001 44.6099 32.3401 45.3899 30.5101C45.8399 29.4301 45.5999 28.8301 44.6399 28.2301C44.1899 27.9601 44.0399 27.5401 44.2499 27.1201C44.4599 26.7001 44.8499 26.5801 45.3599 26.7901C46.8299 27.3601 47.6399 29.1901 47.0099 30.7501C46.2899 32.5501 45.5399 34.3501 44.6699 36.0901C42.2699 41.0101 39.2999 45.5401 35.3699 49.4101C35.0399 49.7401 34.7099 50.0401 34.3799 50.3401C32.4899 52.1701 30.2699 52.5001 27.8999 51.5701C24.7799 50.3701 21.6599 49.1101 18.5399 47.8501C17.7599 47.5501 16.9499 47.2201 16.1699 46.9201C15.9899 46.8601 15.8399 46.8001 15.6599 46.7101C14.3399 45.9901 14.1899 44.7001 15.2999 43.7101C16.5599 42.5701 17.8499 41.4601 19.1099 40.3201C19.4099 40.0501 19.6799 39.7201 20.0099 39.4501C20.3999 39.0901 20.8499 39.0601 21.1799 39.4201C21.5399 39.7801 21.5399 40.2301 21.1199 40.6201C19.6499 42.0001 18.1499 43.3501 16.6799 44.7001C16.5899 44.7601 16.4099 44.9101 16.1699 45.1201Z" fill="white"/>
<path d="M22.9198 42.5701C23.4298 43.1101 24.5098 43.4101 23.9698 44.6401C25.2898 45.1801 26.5498 45.7201 27.8698 46.2001C27.9598 46.2301 28.1698 46.1401 28.2898 46.0501C29.3098 45.2101 30.3898 44.9401 31.5898 45.6901C31.8898 45.8701 32.0398 45.6901 32.2198 45.5101C34.2598 43.5001 36.0598 41.3101 37.6498 38.9401C39.0298 36.8401 40.2598 34.6501 41.5498 32.4901C41.8498 31.9501 42.2398 31.7701 42.6898 32.0101C43.1098 32.2501 43.2298 32.7001 42.9598 33.2401C41.5798 36.1201 39.8698 38.8201 37.9798 41.4001C36.4798 43.4401 34.8598 45.4201 32.9998 47.1301C32.4298 47.6701 32.2198 47.6701 31.5598 47.2801C30.5698 46.6501 29.2798 46.8001 28.4698 47.6401C28.1698 47.9401 27.8398 48.0301 27.4498 47.8501C25.8898 47.1901 24.3298 46.5901 22.7698 45.9301C22.1398 45.6601 21.9898 45.2101 22.3498 44.6101C22.6798 44.0401 22.5598 43.6801 21.9898 43.3801C21.8398 43.2901 21.6898 43.2601 21.5398 43.1701C20.9098 42.8401 20.8498 42.2401 21.3598 41.7601C21.9598 41.1601 22.5898 40.5901 23.1898 39.9901C23.5798 39.6001 24.0598 39.5701 24.3898 39.9001C24.7198 40.2301 24.7198 40.6801 24.3298 41.1001C23.8798 41.5501 23.3998 42.0301 22.9198 42.5701Z" fill="white"/>
<path d="M29.5199 35.7901C28.7399 35.9101 28.1099 35.9701 27.6599 36.5401C27.3899 36.8701 27.0599 36.9601 26.6399 36.7801C24.8699 36.0901 23.0999 35.4001 21.3299 34.6801C20.7299 34.4401 20.5799 33.9601 20.9099 33.4201C21.2699 32.8201 21.1799 32.46 20.5799 32.13C19.3199 31.41 19.3199 31.1701 20.3399 30.1201C23.3399 27.1201 26.0699 23.9101 28.1699 20.2201C28.7699 19.1701 29.2499 18.0001 29.7599 16.8901C30.0599 16.2001 30.3599 16.0201 31.0499 16.2901C32.1299 16.7101 33.0599 16.2601 33.4199 15.1501C33.6599 14.4301 34.0199 14.2501 34.7399 14.5201C36.4199 15.1801 38.0999 15.8401 39.7799 16.5001C40.4399 16.7701 40.5899 17.1601 40.2899 17.8501C39.8099 18.9301 40.2299 19.8901 41.3399 20.2801C41.9999 20.5201 42.2099 20.9701 41.8499 21.6601C40.5599 24.0601 39.2999 26.4601 37.8899 28.7701C36.2999 31.4101 34.4699 33.9001 32.1899 36.0001C31.5299 36.6301 31.4399 36.6001 30.6299 36.1501C30.2699 35.9701 29.7899 35.9101 29.5199 35.7901ZM30.9299 17.8801C28.7399 23.0401 25.2899 27.3 21.3899 31.26C22.0499 31.89 23.0999 32.2501 22.5899 33.48C23.9399 34.02 25.2599 34.5301 26.5499 35.0701C26.9999 35.2501 27.2699 35.2501 27.6599 34.9201C28.3799 34.3201 29.1899 34.0201 30.1199 34.3801C30.4199 34.5001 30.7199 34.6501 31.0799 34.8301C35.0099 30.8101 37.7999 26.0401 40.3499 21.0601C39.2399 20.2501 37.9799 19.5301 38.6999 17.8501C37.1699 17.2501 35.6999 16.6801 34.1999 16.0801C33.4199 17.2801 32.6999 18.5701 30.9299 17.8801Z" fill="white"/>
<path d="M31.32 29.6701C30.36 29.6101 29.49 29.4001 28.74 28.7701C27.42 27.6301 27.42 25.8001 28.74 24.6601C30.03 23.5501 32.19 23.4601 33.54 24.4501C34.44 25.1101 34.92 25.9801 34.74 27.1201C34.53 28.3801 33.66 29.0701 32.49 29.4601C32.1 29.5801 31.71 29.6101 31.32 29.6701ZM31.23 28.1401C31.71 27.9901 32.16 27.9001 32.52 27.6601C33.36 27.1501 33.36 26.2801 32.55 25.7401C31.86 25.2601 30.69 25.2601 29.97 25.7101C29.16 26.2501 29.16 27.1201 29.97 27.6301C30.33 27.8701 30.81 27.9601 31.23 28.1401Z" fill="white"/>
</g>
<defs>
<clipPath id="clip0_27_961">
<rect width="60" height="60" fill="white"/>
</clipPath>
</defs>
</svg>
