<svg width="60" height="60" viewBox="0 0 60 60" fill="none" xmlns="http://www.w3.org/2000/svg">
<g clip-path="url(#clip0_27_971)">
<path d="M30 60C46.5685 60 60 46.5685 60 30C60 13.4315 46.5685 0 30 0C13.4315 0 0 13.4315 0 30C0 46.5685 13.4315 60 30 60Z" fill="#9DCD57"/>
<path d="M48.0601 26.8499C48.0001 26.6699 47.8801 26.5799 47.7301 26.4599C47.2501 26.1599 45.5401 25.7699 45.3001 25.4999C45.2101 25.4099 44.6701 23.6399 44.5201 23.3099C44.4001 22.9799 43.9201 22.2599 43.8901 22.0199C43.8001 21.3599 45.3001 19.7099 44.7901 18.8999L41.2501 15.4499C40.4101 15.1499 38.9701 16.4999 38.2801 16.4099C38.1301 16.3799 37.3501 15.8999 37.0801 15.7799C36.7201 15.6299 34.8901 15.0599 34.8001 14.9699C34.5601 14.7599 34.1401 13.0199 33.9001 12.5999C33.6901 12.2399 33.5101 12.2099 33.1201 12.1499C32.1301 12.0599 29.5201 12.0299 28.5601 12.1499C27.5701 12.2699 27.5401 14.4599 27.0001 14.9399C26.7901 15.1199 25.4101 15.5099 25.0201 15.6899C24.6001 15.8699 24.0301 16.2599 23.6701 16.3799C22.8901 16.5899 21.3601 15.0599 20.4601 15.4799L16.8901 19.0499C16.8001 19.2599 16.8301 19.4399 16.8901 19.6799C17.0101 20.1599 17.9101 21.6599 17.9101 21.9599C17.9101 22.4099 16.4101 24.6599 16.4701 25.4399C15.8701 26.0099 13.8001 26.1599 13.6201 27.0299L13.6501 31.9199C13.8901 32.7299 16.0201 32.85 16.4401 33.3899C16.6201 33.6 17.0401 35.0999 17.2201 35.5199C17.4001 35.9699 17.6701 36.42 17.9101 36.84C17.7601 37.5299 16.7101 39.03 16.8301 39.63C16.8601 39.78 16.9801 39.9899 17.0701 40.1099C17.4301 40.6499 19.4101 42.57 19.9801 43.0499C20.4301 43.41 20.5201 43.53 21.1201 43.38C21.6901 43.23 22.9201 42.4199 23.4001 42.4499C23.6701 42.4799 24.4501 42.9599 24.7801 43.1099C25.4401 43.3799 26.1001 43.65 26.7901 43.83C27.3901 44.4 27.5401 46.5 28.3801 46.68C29.8801 46.62 31.5601 46.8299 33.0001 46.7099C33.6301 46.6499 33.6301 46.4699 33.8701 45.9599C34.0501 45.57 34.5001 44.07 34.6801 43.8899C34.8001 43.77 36.2401 43.3499 36.5701 43.1999C36.9301 43.0499 37.8601 42.5099 38.0701 42.4499C38.8801 42.2699 40.4401 43.8899 41.3401 43.2899L44.7301 39.8099C45.0601 39.0299 43.7101 37.44 43.7701 36.84C43.7701 36.75 44.5201 35.3399 44.6401 35.07C44.7901 34.6799 45.0601 33.6299 45.2101 33.4199C45.5401 32.9399 47.8501 32.6999 48.0001 31.9799L48.0601 26.8499ZM43.9201 32.2199C43.6801 32.58 43.3501 34.0499 43.1101 34.6499C42.9001 35.1299 42.1201 36.3899 42.0601 36.7499C42.0001 37.3199 43.1401 38.97 43.0501 39.33L40.8301 41.58C40.5301 41.73 38.7301 40.4999 38.0701 40.6199C37.7701 40.6799 36.7501 41.3399 36.3301 41.5199C35.7001 41.7899 33.9901 42.2099 33.6301 42.4499C33.1801 42.7799 32.8801 44.4599 32.5201 44.9699L29.2501 45.03C28.8301 44.3699 28.6501 42.75 27.9301 42.3899C27.3301 42.0599 26.1901 41.8499 25.4401 41.5199C24.9901 41.3399 23.8801 40.6199 23.5501 40.59C22.9201 40.53 21.6301 41.49 20.9401 41.58C20.7901 41.55 18.7501 39.5099 18.6901 39.3599C18.5101 38.9699 19.8001 37.2899 19.6501 36.5099C19.5901 36.1799 18.8401 35.07 18.6301 34.59C18.3901 34.02 18.0001 32.4599 17.7301 32.1299C17.3701 31.7099 15.3001 31.1999 15.2101 31.0499L15.1801 27.8099C15.2401 27.5999 17.6101 27.0299 17.7901 26.5799C18.0901 25.6499 18.3601 24.7199 18.7801 23.8199C18.9901 23.3699 19.5901 22.5599 19.6201 22.1399C19.7101 21.5099 18.7501 20.2199 18.6301 19.5299C18.6601 19.3799 20.5801 17.4599 20.7901 17.3399C20.9101 17.2799 20.9401 17.2499 21.0601 17.2499C21.6901 17.3399 22.9501 18.3299 23.5801 18.2399C23.9101 18.1799 24.8701 17.5199 25.3201 17.3399C25.9201 17.0699 27.7501 16.6199 28.0801 16.3499C28.5301 15.9899 29.0101 13.9199 29.1601 13.8299C30.0901 13.9199 31.4701 13.6499 32.3401 13.7999C32.4901 13.8299 32.4901 13.8599 32.5801 13.9799C32.9101 14.5199 33.0601 15.6599 33.4201 16.1699C33.6601 16.5299 35.4601 16.9499 36.0301 17.1899C36.4801 17.3999 37.8901 18.2399 38.2201 18.2399C38.8201 18.2699 40.0501 17.3099 40.7101 17.2499C40.8601 17.2799 42.8101 19.2599 42.9001 19.4099C42.9601 19.5299 42.9901 19.5299 42.9901 19.6799C42.9301 20.1299 42.2401 21.1799 42.0901 21.7199C42.0301 21.8999 42.0001 21.9599 42.0301 22.1699C42.1201 22.5599 42.8101 23.6099 43.0201 24.1199C43.2601 24.6599 43.7101 26.4599 43.9801 26.6999C44.3101 27.0599 46.2601 27.4799 46.4101 27.7199L46.4401 31.0499C45.9301 31.4099 44.2201 31.74 43.9201 32.2199Z" fill="white"/>
<path d="M29.58 17.79C20.76 18.57 16.23 29.07 21.36 36.24C26.94 44.04 39.3 42.09 42.06 32.88C44.52 24.69 38.04 17.04 29.58 17.79ZM39.66 34.32C35.91 41.1 26.07 41.19 22.2 34.5C18.51 28.11 22.65 20.04 29.97 19.41C37.98 18.69 43.59 27.27 39.66 34.32Z" fill="white"/>
<path d="M27.57 24.5399C25.56 26.4599 25.89 29.7899 28.08 31.4699C28.53 31.7999 29.43 32.0399 29.58 32.6099C29.7 33.1799 29.67 36.4799 29.58 37.1399C29.43 38.1599 28.11 38.0699 27.96 37.3499C27.75 36.2399 28.11 34.5899 27.93 33.4199C26.91 32.6999 25.89 31.8599 25.29 30.7199C23.94 28.1399 24.51 24.9599 26.7 23.0399C27.36 22.4399 28.71 21.3899 29.16 22.7099L29.19 27.8399C29.25 27.9899 30.69 28.8299 30.93 28.7999C31.14 28.7699 32.46 27.9899 32.49 27.8399C32.67 26.2799 32.34 24.4199 32.52 22.8899C32.7 21.3599 34.17 22.3499 34.86 22.8899C38.34 25.7699 37.83 31.1999 33.87 33.2699C33.72 33.5099 33.96 36.5099 33.84 37.1399C33.69 38.0999 32.34 38.2499 32.16 37.0199C32.04 36.2399 32.04 33.5699 32.16 32.8199C32.31 31.9799 33.24 31.8599 33.84 31.3799C35.91 29.7299 36.15 26.3399 34.14 24.5699V28.6499C34.14 28.7099 33.96 28.9499 33.9 29.0099C33.75 29.1899 31.56 30.4499 31.29 30.5399C30.78 30.7499 30.57 30.5399 30.15 30.3299C29.73 30.1199 28.14 29.2499 27.87 29.0099C27.81 28.9499 27.6 28.5899 27.6 28.5599V24.5399H27.57Z" fill="white"/>
</g>
<defs>
<clipPath id="clip0_27_971">
<rect width="60" height="60" fill="white"/>
</clipPath>
</defs>
</svg>
